# Blender v2.91.2 OBJ File: 'rocket_ship.blend'
# www.blender.org
mtllib rocket.mtl
o Body_Cube.001
v -1.021385 -0.996023 -4.358255
v -1.021385 1.003977 -4.358255
v 0.978615 -0.996023 -4.358255
v 0.978615 1.003977 -4.358255
v -0.025466 -0.000104 5.475960
v -1.021385 -0.996023 3.833445
v -0.025466 0.008059 5.475960
v -1.021385 1.003977 3.833445
v -0.017303 -0.000104 5.475960
v 0.978615 -0.996023 3.833445
v -0.017303 0.008059 5.475960
v 0.978615 1.003977 3.833445
vt 0.499490 0.874490
vt 0.500510 0.874490
vt 0.500510 0.875510
vt 0.499490 0.875510
vt 0.375000 0.250000
vt 0.625000 0.250000
vt 0.625000 0.500000
vt 0.375000 0.500000
vt 0.875000 0.500000
vt 0.875000 0.722901
vt 0.625000 0.722901
vt 0.375000 0.027099
vt 0.625000 0.027099
vt 0.375000 0.722901
vt 0.625000 1.000000
vt 0.375000 1.000000
vt 0.375000 0.750000
vt 0.625000 0.750000
vt 0.125000 0.500000
vt 0.125000 0.722901
vn 0.0000 0.0000 1.0000
vn 0.0000 0.0000 -1.0000
vn 0.0000 1.0000 0.0000
vn -1.0000 0.0000 0.0000
vn 1.0000 0.0000 0.0000
vn -0.8551 0.0000 0.5185
vn 0.8551 0.0000 0.5185
vn 0.0000 -0.8551 0.5185
vn 0.0000 0.8551 0.5185
vn 0.0000 -1.0000 0.0000
usemtl None
s off
f 9/1/1 11/2/1 7/3/1 5/4/1
f 1/5/2 2/6/2 4/7/2 3/8/2
f 4/7/3 2/9/3 8/10/3 12/11/3
f 6/12/4 8/13/4 2/6/4 1/5/4
f 3/8/5 4/7/5 12/11/5 10/14/5
f 5/4/6 7/3/6 8/15/6 6/16/6
f 11/2/7 9/1/7 10/14/7 12/11/7
f 6/16/8 10/17/8 9/1/8 5/4/8
f 12/18/9 8/15/9 7/3/9 11/2/9
f 1/19/10 3/8/10 10/14/10 6/20/10
o Booster_1_Cylinder
v -1.278837 0.118136 2.038184
v -1.030523 -0.300578 -1.092700
v -1.268642 0.124016 2.038184
v -1.030186 0.536649 -1.092700
v -1.268646 0.112247 2.038184
v -1.755415 0.118327 -1.092700
v -1.268647 0.112247 3.377320
v -1.030523 -0.300578 1.799895
v -1.268642 0.124016 3.377320
v -1.030186 0.536649 1.799895
v -1.278837 0.118136 3.377320
v -1.755415 0.118327 1.799895
vt 0.778735 0.537115
vt 0.778735 0.913873
vt 0.445402 0.913873
vt 0.445402 0.537115
vt 0.750000 0.253374
vt 0.752922 0.248313
vt 0.747078 0.248313
vt 0.457846 0.130000
vt 0.250000 0.490000
vt 0.042154 0.130000
vt 0.666667 0.623243
vt 0.666667 1.000000
vt 0.333333 1.000000
vt 0.333333 0.623243
vt 1.000000 0.623243
vt 1.000000 1.000000
vt 0.830990 0.500000
vt 0.835676 0.500000
vt 0.497657 0.500000
vt 0.502343 0.500000
vt 0.609725 0.413873
vt 0.614411 0.413873
vn -0.5003 -0.8658 -0.0000
vn 0.0000 0.0000 1.0000
vn -0.0000 0.0000 -1.0000
vn -0.4997 0.8662 -0.0000
vn 1.0000 -0.0004 0.0000
vn 0.9888 -0.0004 0.1494
vn -0.4940 0.8565 0.1494
vn -0.4947 -0.8561 0.1494
usemtl texture
s off
f 24/21/11 18/22/11 14/23/11 20/24/11
f 17/25/12 15/26/12 13/27/12
f 16/28/13 14/29/13 18/30/13
f 22/31/14 16/32/14 18/33/14 24/34/14
f 20/35/15 14/36/15 16/32/15 22/31/15
f 20/35/16 22/31/16 21/37/16 19/38/16
f 22/31/17 24/34/17 23/39/17 21/40/17
f 24/21/18 20/24/18 19/41/18 23/42/18
o Booster_2_Cylinder.002
v 1.233552 0.121120 2.063488
v 1.720320 0.127287 -1.067397
v 1.233545 0.132890 2.063488
v 0.995017 0.545482 -1.067397
v 1.243741 0.127011 2.063488
v 0.995502 -0.291746 -1.067397
v 1.243741 0.127011 3.402623
v 1.720319 0.127287 1.825199
v 1.233544 0.132890 3.402623
v 0.995017 0.545481 1.825199
v 1.233551 0.121120 3.402623
v 0.995501 -0.291747 1.825199
vt 0.333333 0.623243
vt 0.333333 1.000000
vt -0.000000 1.000000
vt -0.000000 0.623243
vt 0.750000 0.253374
vt 0.752922 0.248313
vt 0.747078 0.248313
vt 0.457846 0.130000
vt 0.250000 0.490000
vt 0.042154 0.130000
vt 0.666667 0.623243
vt 0.666667 1.000000
vt 1.000000 0.623243
vt 1.000000 1.000000
vt 0.830990 0.500000
vt 0.835676 0.500000
vt 0.497657 0.500000
vt 0.502343 0.500000
vt 0.164324 0.500000
vt 0.169010 0.500000
vn 0.5005 -0.8657 -0.0000
vn 0.0000 0.0000 1.0000
vn 0.0000 0.0000 -1.0000
vn -1.0000 -0.0006 -0.0000
vn 0.4995 0.8663 0.0000
vn 0.4939 0.8566 0.1494
vn -0.9888 -0.0006 0.1494
vn 0.4949 -0.8560 0.1494
usemtl None
s off
f 36/43/19 30/44/19 26/45/19 32/46/19
f 29/47/20 27/48/20 25/49/20
f 28/50/21 26/51/21 30/52/21
f 34/53/22 28/54/22 30/44/22 36/43/22
f 32/55/23 26/56/23 28/54/23 34/53/23
f 32/55/24 34/53/24 33/57/24 31/58/24
f 34/53/25 36/43/25 35/59/25 33/60/25
f 36/43/26 32/46/26 31/61/26 35/62/26
